<?xml version="1.0" encoding="UTF-8" standalone="no"?>
<!-- Created with Inkscape (http://www.inkscape.org/) -->

<svg
   width="210mm"
   height="50mm"
   viewBox="0 0 210 50"
   version="1.1"
   id="svg5"
   inkscape:version="1.1.1 (3bf5ae0d25, 2021-09-20)"
   sodipodi:docname="doc-logo.svg"
   xmlns:inkscape="http://www.inkscape.org/namespaces/inkscape"
   xmlns:sodipodi="http://sodipodi.sourceforge.net/DTD/sodipodi-0.dtd"
   xmlns="http://www.w3.org/2000/svg"
   xmlns:svg="http://www.w3.org/2000/svg">
  <sodipodi:namedview
     id="namedview7"
     pagecolor="#ffffff"
     bordercolor="#111111"
     borderopacity="1"
     inkscape:pageshadow="0"
     inkscape:pageopacity="0"
     inkscape:pagecheckerboard="1"
     inkscape:document-units="mm"
     showgrid="false"
     inkscape:snap-global="false"
     inkscape:zoom="0.69130191"
     inkscape:cx="318.96339"
     inkscape:cy="98.365127"
     inkscape:window-width="1920"
     inkscape:window-height="1011"
     inkscape:window-x="0"
     inkscape:window-y="0"
     inkscape:window-maximized="1"
     inkscape:current-layer="layer1" />
  <defs
     id="defs2" />
  <g
     inkscape:label="Layer 1"
     inkscape:groupmode="layer"
     id="layer1">
    <g
       id="g17434"
       transform="matrix(2.5760991,0,0,3.0582175,-115.26962,-266.52648)"
       style="fill:#cdd9d3;fill-opacity:1">
      <path
         d="m 46.724647,92.413662 v 5.999615 h 1.260901 q 1.596797,0 2.335767,-0.723468 0.744139,-0.723468 0.744139,-2.284091 0,-1.550288 -0.744139,-2.268588 -0.73897,-0.723468 -2.335767,-0.723468 z m -1.04386,-0.857826 h 2.144565 q 2.24275,0 3.291778,0.935341 1.049028,0.930172 1.049028,2.914541 0,1.994704 -1.054196,2.930044 -1.054195,0.935341 -3.28661,0.935341 h -2.144565 z"
         id="path17351"
         style="font-size:10.5833px;line-height:1.25;fill:#cdd9d3;fill-opacity:1;stroke-width:0.264583" />
      <path
         d="m 56.031543,94.149985 q -0.764809,0 -1.209225,0.599444 -0.444416,0.594278 -0.444416,1.632971 0,1.038693 0.439249,1.638137 0.444416,0.594277 1.214392,0.594277 0.759641,0 1.204057,-0.599444 0.444416,-0.599445 0.444416,-1.63297 0,-1.028358 -0.444416,-1.627803 -0.444416,-0.604612 -1.204057,-0.604612 z m 0,-0.80615 q 1.24023,0 1.948195,0.80615 0.707965,0.80615 0.707965,2.232415 0,1.421097 -0.707965,2.232414 -0.707965,0.80615 -1.948195,0.80615 -1.245398,0 -1.953363,-0.80615 -0.702797,-0.811317 -0.702797,-2.232414 0,-1.426265 0.702797,-2.232415 0.707965,-0.80615 1.953363,-0.80615 z"
         id="path17353"
         style="font-size:10.5833px;line-height:1.25;fill:#cdd9d3;fill-opacity:1;stroke-width:0.264583" />
      <path
         d="m 64.428937,93.705569 v 0.888832 q -0.403075,-0.222208 -0.811318,-0.330728 -0.403075,-0.113688 -0.816485,-0.113688 -0.925005,0 -1.4366,0.589109 -0.511595,0.583942 -0.511595,1.643306 0,1.059363 0.511595,1.648472 0.511595,0.583942 1.4366,0.583942 0.41341,0 0.816485,-0.10852 0.408243,-0.113688 0.811318,-0.335896 v 0.878497 q -0.397908,0.186035 -0.826821,0.279052 -0.423745,0.09302 -0.904334,0.09302 -1.30741,0 -2.077386,-0.821653 -0.769977,-0.821652 -0.769977,-2.216911 0,-1.41593 0.775144,-2.227248 0.780312,-0.811317 2.13423,-0.811317 0.439249,0 0.857826,0.09302 0.418578,0.08785 0.811318,0.268717 z"
         id="path17355"
         style="font-size:10.5833px;line-height:1.25;fill:#cdd9d3;fill-opacity:1;stroke-width:0.264583" />
      <path
         d="m 65.984391,96.987012 v -3.503651 h 0.950844 v 3.467477 q 0,0.821653 0.320392,1.235063 0.320393,0.408243 0.961179,0.408243 0.769976,0 1.214392,-0.490925 0.449584,-0.490924 0.449584,-1.338415 v -3.281443 h 0.950843 v 5.787742 h -0.950843 v -0.888832 q -0.346231,0.527098 -0.80615,0.785479 -0.454751,0.253214 -1.059363,0.253214 -0.997352,0 -1.514115,-0.620115 -0.516763,-0.620115 -0.516763,-1.813837 z m 2.392611,-3.643177 z"
         id="path17357"
         style="font-size:10.5833px;line-height:1.25;fill:#cdd9d3;fill-opacity:1;stroke-width:0.264583" />
      <path
         d="m 77.296327,94.594401 q 0.356566,-0.640786 0.852659,-0.945676 0.496092,-0.30489 1.167883,-0.30489 0.904335,0 1.39526,0.635618 0.490924,0.630451 0.490924,1.798334 v 3.493316 h -0.956011 v -3.46231 q 0,-0.831988 -0.294555,-1.235063 -0.294554,-0.403075 -0.899167,-0.403075 -0.73897,0 -1.167883,0.490925 -0.428913,0.490924 -0.428913,1.338415 v 3.271108 h -0.956011 v -3.46231 q 0,-0.837156 -0.294555,-1.235063 -0.294555,-0.403075 -0.909502,-0.403075 -0.728636,0 -1.157549,0.496092 -0.428913,0.490925 -0.428913,1.333248 v 3.271108 h -0.956011 v -5.787742 h 0.956011 v 0.899167 q 0.325561,-0.532266 0.780312,-0.785479 0.454751,-0.253214 1.080034,-0.253214 0.63045,0 1.069699,0.320393 0.444416,0.320393 0.656288,0.930173 z"
         id="path17359"
         style="font-size:10.5833px;line-height:1.25;fill:#cdd9d3;fill-opacity:1;stroke-width:0.264583" />
      <path
         d="m 88.050157,96.139521 v 0.465086 h -4.371812 q 0.06201,0.98185 0.589109,1.498612 0.532266,0.511595 1.477942,0.511595 0.547768,0 1.059363,-0.134358 0.516763,-0.134358 1.02319,-0.403075 v 0.899167 q -0.511595,0.217041 -1.049028,0.330728 -0.537433,0.113688 -1.090369,0.113688 -1.384924,0 -2.196242,-0.80615 -0.80615,-0.806149 -0.80615,-2.180738 0,-1.421098 0.764809,-2.253085 0.769977,-0.837156 2.072219,-0.837156 1.167883,0 1.844842,0.754474 0.682127,0.749305 0.682127,2.041212 z m -0.950843,-0.279052 q -0.01034,-0.780311 -0.439249,-1.245398 -0.423745,-0.465086 -1.126542,-0.465086 -0.795815,0 -1.276404,0.449583 -0.475422,0.449584 -0.547768,1.266069 z"
         id="path17361"
         style="font-size:10.5833px;line-height:1.25;fill:#cdd9d3;fill-opacity:1;stroke-width:0.264583" />
      <path
         d="m 94.421843,95.777787 v 3.493316 h -0.950844 v -3.46231 q 0,-0.821653 -0.320393,-1.229895 -0.320393,-0.408243 -0.961178,-0.408243 -0.769977,0 -1.214393,0.490925 -0.444415,0.490924 -0.444415,1.338415 v 3.271108 h -0.956011 v -5.787742 h 0.956011 v 0.899167 q 0.341063,-0.52193 0.800982,-0.780312 0.465086,-0.258381 1.069698,-0.258381 0.997352,0 1.508947,0.620115 0.511596,0.614948 0.511596,1.813837 z"
         id="path17363"
         style="font-size:10.5833px;line-height:1.25;fill:#cdd9d3;fill-opacity:1;stroke-width:0.264583" />
      <path
         d="m 97.258871,91.840056 v 1.643305 h 1.95853 v 0.738971 h -1.95853 v 3.141917 q 0,0.707964 0.191202,0.909502 0.19637,0.201537 0.790647,0.201537 h 0.976681 v 0.795815 H 98.24072 q -1.100705,0 -1.519283,-0.408243 -0.418577,-0.41341 -0.418577,-1.498611 v -3.141917 h -0.69763 v -0.738971 h 0.69763 v -1.643305 z"
         id="path17365"
         style="font-size:10.5833px;line-height:1.25;fill:#cdd9d3;fill-opacity:1;stroke-width:0.264583" />
      <path
         d="m 103.09829,96.361729 q -1.15238,0 -1.5968,0.263549 -0.44441,0.263549 -0.44441,0.899167 0,0.506427 0.33072,0.80615 0.3359,0.294555 0.90951,0.294555 0.79064,0 1.26607,-0.558104 0.48059,-0.563271 0.48059,-1.493444 v -0.211873 z m 1.89652,-0.39274 v 3.302114 h -0.95084 v -0.878497 q -0.32557,0.527098 -0.81132,0.780312 -0.48576,0.248046 -1.18856,0.248046 -0.88883,0 -1.41593,-0.496092 -0.52193,-0.50126 -0.52193,-1.338415 0,-0.976682 0.65112,-1.472774 0.65629,-0.496092 1.95337,-0.496092 h 1.33325 v -0.09302 q 0,-0.656288 -0.43409,-1.012854 -0.42891,-0.361734 -1.20922,-0.361734 -0.49609,0 -0.96635,0.118855 -0.47025,0.118856 -0.90433,0.356566 V 93.74691 q 0.52193,-0.201538 1.01285,-0.299722 0.49093,-0.103353 0.95601,-0.103353 1.25574,0 1.87585,0.651121 0.62012,0.651121 0.62012,1.974033 z"
         id="path17367"
         style="font-size:10.5833px;line-height:1.25;fill:#cdd9d3;fill-opacity:1;stroke-width:0.264583" />
      <path
         d="m 107.89385,91.840056 v 1.643305 h 1.95853 v 0.738971 h -1.95853 v 3.141917 q 0,0.707964 0.1912,0.909502 0.19637,0.201537 0.79065,0.201537 h 0.97668 v 0.795815 h -0.97668 q -1.10071,0 -1.51929,-0.408243 -0.41857,-0.41341 -0.41857,-1.498611 v -3.141917 h -0.69763 v -0.738971 h 0.69763 v -1.643305 z"
         id="path17369"
         style="font-size:10.5833px;line-height:1.25;fill:#cdd9d3;fill-opacity:1;stroke-width:0.264583" />
      <path
         d="m 111.10294,93.483361 h 0.95084 v 5.787742 h -0.95084 z m 0,-2.253085 h 0.95084 v 1.204057 h -0.95084 z"
         id="path17371"
         style="font-size:10.5833px;line-height:1.25;fill:#cdd9d3;fill-opacity:1;stroke-width:0.264583" />
      <path
         d="m 116.28607,94.149985 q -0.76481,0 -1.20922,0.599444 -0.44442,0.594278 -0.44442,1.632971 0,1.038693 0.43925,1.638137 0.44442,0.594277 1.21439,0.594277 0.75964,0 1.20406,-0.599444 0.44442,-0.599445 0.44442,-1.63297 0,-1.028358 -0.44442,-1.627803 -0.44442,-0.604612 -1.20406,-0.604612 z m 0,-0.80615 q 1.24023,0 1.9482,0.80615 0.70796,0.80615 0.70796,2.232415 0,1.421097 -0.70796,2.232414 -0.70797,0.80615 -1.9482,0.80615 -1.2454,0 -1.95336,-0.80615 -0.7028,-0.811317 -0.7028,-2.232414 0,-1.426265 0.7028,-2.232415 0.70796,-0.80615 1.95336,-0.80615 z"
         id="path17373"
         style="font-size:10.5833px;line-height:1.25;fill:#cdd9d3;fill-opacity:1;stroke-width:0.264583" />
      <path
         d="m 125.32942,95.777787 v 3.493316 h -0.95084 v -3.46231 q 0,-0.821653 -0.3204,-1.229895 -0.32039,-0.408243 -0.96117,-0.408243 -0.76998,0 -1.2144,0.490925 -0.44441,0.490924 -0.44441,1.338415 v 3.271108 h -0.95601 v -5.787742 h 0.95601 v 0.899167 q 0.34106,-0.52193 0.80098,-0.780312 0.46509,-0.258381 1.0697,-0.258381 0.99735,0 1.50894,0.620115 0.5116,0.614948 0.5116,1.813837 z"
         id="path17375"
         style="font-size:10.5833px;line-height:1.25;fill:#cdd9d3;fill-opacity:1;stroke-width:0.264583" />
    </g>
  </g>
</svg>
